<svg width="19" height="25" viewBox="0 0 19 25" fill="none" xmlns="http://www.w3.org/2000/svg">
<path d="M18.0217 13.1485C17.9305 12.7102 16.9555 11.9866 16.9555 11.9866C18.7184 11.294 18.926 11.1928 18.8176 9.19338C18.8165 9.16922 18.8153 9.14276 18.8131 9.1186C18.9796 8.29951 18.8792 7.2975 18.7846 6.38063C18.7697 6.24143 18.7583 6.11143 18.7458 5.97798C18.7492 5.81808 18.7515 5.65702 18.7572 5.48676C18.7789 4.79882 18.8473 4.20866 18.9077 3.68752C18.9989 2.90179 19.0651 2.33349 18.8929 2.05279C18.7697 1.85262 18.4824 1.73988 18.0285 1.70306C17.9498 1.61563 17.8677 1.53395 17.7742 1.46953C17.6967 1.35104 17.6203 1.23255 17.5302 1.12326C17.5085 1.09795 17.4846 1.07724 17.4629 1.05193C16.7263 0.213286 15.6965 -0.128387 14.3989 0.043024C14.0716 0.0867395 13.2962 0.183374 12.2756 0.309919C11.5366 0.401952 10.6529 0.512391 9.7121 0.630883C6.79857 0.304167 3.87704 0.0786875 2.45733 0.635485C2.18593 0.742473 1.95217 0.841408 1.74691 0.938042C1.69103 0.941494 1.63972 0.946095 1.59296 0.949546C0.92473 1.00592 0.531315 1.19919 0.316934 1.57767C0.167551 1.84111 0.125358 2.16093 0.137902 2.53366C-0.108409 3.0663 0.0352725 3.7646 0.218865 4.64581C0.224567 4.67227 0.230269 4.69988 0.23597 4.72634C0.170972 4.83448 0.0957096 4.94147 0.037553 5.05076C0.0877273 5.42694 0.137902 5.80312 0.188076 6.17931C0.490263 6.71425 0.681838 7.24689 0.16641 7.77147C0.197199 8.29146 0.226848 8.81259 0.257636 9.33258C0.299829 9.3947 0.342021 9.45682 0.383073 9.51894C0.283864 10.3771 0.220006 11.0582 0.51307 11.5368C0.635085 11.7358 0.277022 12.2007 0.51307 12.2974C-0.141478 12.3687 0.501667 12.8011 0.310092 13.1393C0.160709 13.4027 0.118516 13.7225 0.13106 14.0953C-0.115251 14.6279 0.0284305 15.2112 0.212023 16.0924C0.314653 16.5871 0.432107 17.1473 0.51079 17.7938C0.51079 17.7938 0.570087 18.4703 0.534737 19.1226C0.499386 19.7748 0.448071 20.3477 0.389915 20.8528C0.283864 21.7639 0.20062 22.4841 0.506228 22.9833C0.628243 23.1824 0.804995 23.3239 1.04104 23.4205C1.30104 23.9865 1.84384 24.2419 3.0446 24.5467C3.40951 24.6388 3.86336 24.671 4.38335 24.656C4.95465 24.6388 5.60578 24.5651 6.30822 24.4524C6.35726 24.4766 6.40629 24.4984 6.45761 24.518C6.77576 24.6376 7.20908 24.8366 7.44741 24.7124C8.24792 24.2971 8.86484 24.6537 9.51597 25C10.2492 24.9482 10.9836 24.8965 11.7168 24.8458C12.3577 23.9922 13.1377 24.1752 13.9393 24.5191C14.4753 24.5237 15.0101 24.5272 15.546 24.5318C15.8311 24.3236 16.8677 24.2028 17.1847 24.1176C18.0593 23.8829 17.8643 23.4458 18 23.0581C18.9191 22.6152 18.8997 22.2517 18.8119 20.6399C18.8108 20.6158 18.8096 20.5893 18.8074 20.5652C18.9739 19.7461 18.8735 18.7441 18.7789 17.8272C18.764 17.688 18.7526 17.558 18.7401 17.4246C18.7435 17.2646 18.7469 17.1036 18.7515 16.9333C18.7732 16.2454 18.8416 15.6552 18.902 15.1341C18.9932 14.3484 19.0594 13.7801 18.8872 13.4994C18.764 13.2992 18.4767 13.1864 18.0228 13.1496L18.0217 13.1485ZM2.67856 3.27222C2.87925 2.94436 3.12785 2.68206 3.42091 2.48304C4.28072 2.34959 5.38912 2.18969 6.55795 2.02403C6.69593 2.02403 6.83962 2.02288 6.99014 2.02173C8.42923 2.01367 10.4727 2.00217 12.3428 2.00217C13.7215 2.17128 14.8687 2.27712 15.5403 2.19084C15.6452 2.17703 15.7399 2.17588 15.8322 2.18048C15.993 2.32544 16.1379 2.4934 16.2667 2.68551L16.9612 2.75224C16.9201 2.84427 16.8791 3.4862 16.838 3.57823C16.7479 3.73814 16.7799 3.92911 16.9657 3.97857C16.9657 3.97857 17.2018 4.0499 17.2999 4.70333C17.2999 4.70333 17.3489 4.95642 17.1539 5.20951C17.1436 5.48216 17.4698 6.71425 17.4663 6.9938C17.4652 7.12379 17.4755 7.31936 17.5268 7.46086L17.0353 7.88076C17.0376 7.95324 17.041 8.02456 17.0433 8.09704C17.0056 8.72746 17.2326 9.31302 16.9521 9.92619C16.7662 10.047 16.5119 10.4301 16.2211 10.4301C15.5962 10.4393 14.4091 10.6901 13.0784 11.0248C12.8298 11.0271 12.5812 11.0306 12.3326 11.0329C11.6244 11.2572 10.9323 11.378 10.3381 10.8339C9.68132 10.804 9.02448 10.774 8.36766 10.7453C7.79521 10.9696 7.25355 11.202 6.52717 10.9385C6.3105 10.8603 5.92963 10.9903 5.64797 11.0674C5.38798 11.1399 4.9786 11.3205 4.73571 11.4252C4.69922 11.4677 4.66273 11.5091 4.62624 11.5517C4.52475 11.554 4.42326 11.5575 4.31949 11.5609C4.18379 11.5655 3.69459 11.3792 3.44486 11.3619C2.95338 11.3297 2.60671 11.1836 2.37523 10.8672C1.94076 10.2725 2.0719 9.24745 2.08558 8.13615C2.09129 7.64838 2.09699 7.18822 2.06734 6.78672C2.00462 5.94808 2.0012 4.37661 2.67627 3.27337L2.67856 3.27222ZM11.4591 21.6719C10.9927 21.7858 10.516 22.1297 10.0382 22.2436C9.97666 22.2528 9.91508 22.2609 9.85351 22.2689C8.87967 22.2735 7.83968 22.277 6.8476 22.2781C5.69587 22.1539 4.80869 22.3483 4.12221 22.369C3.98537 22.3725 3.86108 22.3817 3.74932 22.3943C3.25898 22.4518 2.9089 22.3414 2.67741 22.0596C2.59417 21.9583 2.52347 21.8157 2.46417 21.6454C2.43567 21.2025 2.5018 20.7343 2.57136 20.2948C2.26462 20.0613 2.40032 19.7334 2.58961 19.3066C2.62268 19.2261 2.30681 18.0596 2.34102 17.9779L2.15514 17.7731C2.154 17.7513 2.15286 17.7294 2.15172 17.7076C2.09015 16.9609 1.71954 15.6196 2.39689 14.636C2.52119 14.4565 2.79145 14.33 3.04916 14.2184C3.22249 14.3058 3.38556 14.43 3.52126 14.4979L5.21123 14.1229C5.27622 13.8606 5.49859 13.7156 5.66508 13.6156C5.98893 13.558 6.32077 13.504 6.65488 13.4614C6.76321 13.4614 6.87611 13.4602 6.99128 13.4591C7.13268 13.5155 7.27408 13.5695 7.41662 13.5937C7.86705 13.6754 8.31748 13.7571 8.76791 13.8399C8.92186 13.9089 9.0758 13.9791 9.22975 14.0481C9.30615 14.1298 9.38141 14.2103 9.45781 14.292C9.73149 14.2943 10.0109 14.2529 10.2754 14.3127C10.4647 14.3553 10.6335 14.5359 10.8114 14.6544C11.0394 14.6314 11.2664 14.6084 11.4944 14.5853C11.6256 14.5186 11.7567 14.3932 11.889 14.3978C12.2322 14.4093 12.5766 14.4795 12.921 14.5255C13.092 14.4738 13.3406 14.468 13.5117 14.4174C13.6462 14.3449 14.2974 13.9055 14.4308 13.833C14.7774 13.6823 15.1218 13.6443 15.4639 13.9009L16.3967 14.2552C16.505 14.3115 16.6134 14.3691 16.7217 14.4254C17.1801 15.3504 16.9224 16.4996 16.8893 17.1703C16.8722 17.5281 16.8916 17.9376 16.9121 18.3725C16.9201 18.5336 17.041 18.6981 17.0467 18.8626C17.0091 19.4251 17.0022 20.1637 16.7217 20.709C16.5358 20.8171 16.3066 20.8781 16.0147 20.8781C15.1252 20.8907 13.4227 21.1898 11.4602 21.6707L11.4591 21.6719ZM16.6065 22.4415C15.9269 22.5784 15.2336 22.7164 14.5391 22.8533C14.4502 22.8637 14.3601 22.874 14.2711 22.8855C13.5185 22.8959 12.7385 22.9074 11.9563 22.9166L14.5927 22.1332C15.9132 22.0837 16.4081 22.2321 17.0878 22.3449C16.9281 22.3771 16.7685 22.4093 16.6065 22.4415Z" fill="black"/>
</svg>
