<svg width="96" height="125" viewBox="0 0 96 125" fill="none" xmlns="http://www.w3.org/2000/svg">
<path d="M91.0562 65.2177C90.5952 63.0437 85.6691 59.4545 85.6691 59.4545C94.5765 56.0194 95.6251 55.5172 95.0778 45.6C95.072 45.4802 95.0663 45.3489 95.0547 45.2291C95.8959 41.1663 95.3889 36.1963 94.9107 31.6485C94.8358 30.9581 94.7782 30.3133 94.7148 29.6514C94.7321 28.8582 94.7436 28.0593 94.7724 27.2148C94.8819 23.8026 95.2276 20.8753 95.533 18.2904C95.9939 14.3932 96.328 11.5743 95.458 10.182C94.8358 9.18916 93.3839 8.62995 91.0908 8.44736C90.6932 8.01369 90.2784 7.60855 89.8059 7.28901C89.4141 6.70128 89.0281 6.11355 88.5729 5.57146C88.4634 5.44593 88.3425 5.34322 88.233 5.21768C84.511 1.05792 79.3082 -0.636809 72.7515 0.213404C71.0979 0.430237 67.18 0.909553 62.0234 1.53723C58.2899 1.99372 53.8246 2.54151 49.0713 3.12924C34.3504 1.5087 19.5891 0.390298 12.4159 3.15206C11.0447 3.68273 9.86352 4.17346 8.82643 4.65278C8.54411 4.6699 8.28483 4.69272 8.04861 4.70984C4.67231 4.98944 2.68455 5.94807 1.60136 7.82539C0.846593 9.13209 0.633413 10.7184 0.696791 12.5672C-0.547716 15.2091 0.178246 18.6728 1.10587 23.0436C1.13467 23.1749 1.16348 23.3118 1.19229 23.4431C0.863878 23.9795 0.48361 24.5101 0.189769 25.0522C0.443279 26.9181 0.696791 28.784 0.950302 30.6499C2.47713 33.3033 3.44508 35.9452 0.840831 38.5472C0.996394 41.1264 1.1462 43.7113 1.30176 46.2904C1.51494 46.5986 1.72812 46.9067 1.93554 47.2148C1.43428 51.4716 1.11163 54.8496 2.59236 57.2234C3.20885 58.2106 1.39971 60.5168 2.59236 60.9961C-0.714801 61.3499 2.53474 63.4944 1.56679 65.172C0.812024 66.4787 0.598843 68.0651 0.662221 69.9138C-0.582286 72.5558 0.143677 75.4488 1.0713 79.8197C1.58984 82.2733 2.18329 85.0522 2.58084 88.2591C2.58084 88.2591 2.88044 91.6143 2.70183 94.8496C2.52322 98.085 2.26395 100.927 1.97011 103.432C1.43428 107.951 1.01368 111.523 2.55779 113.999C3.17428 114.987 4.06734 115.688 5.25999 116.168C6.57364 118.975 9.31617 120.242 15.3831 121.754C17.2269 122.211 19.52 122.37 22.1473 122.296C25.0338 122.211 28.3237 121.845 31.8729 121.286C32.1206 121.406 32.3684 121.514 32.6277 121.611C34.2351 122.205 36.4246 123.192 37.6287 122.576C41.6734 120.516 44.7904 122.285 48.0803 124.002C51.785 123.746 55.4955 123.489 59.2002 123.238C62.4382 119.004 66.3792 119.911 70.4296 121.617C73.1376 121.64 75.8398 121.657 78.5477 121.68C79.9881 120.647 85.2254 120.048 86.8272 119.626C91.2463 118.462 90.2611 116.293 90.9467 114.37C95.5906 112.173 95.4926 110.37 95.049 102.376C95.0432 102.256 95.0374 102.125 95.0259 102.005C95.8671 97.9424 95.3601 92.9723 94.8819 88.4245C94.807 87.7341 94.7494 87.0893 94.686 86.4274C94.7033 85.6342 94.7206 84.8354 94.7436 83.9909C94.8531 80.5786 95.1988 77.6514 95.5041 75.0665C95.9651 71.1692 96.2992 68.3504 95.4292 66.9581C94.807 65.9652 93.3551 65.406 91.0619 65.2234L91.0562 65.2177ZM13.5337 16.2305C14.5477 14.6043 15.8037 13.3033 17.2845 12.3161C21.6287 11.6542 27.229 10.8611 33.1347 10.0394C33.8318 10.0394 34.5578 10.0337 35.3183 10.028C42.5895 9.98801 52.9143 9.93095 62.3633 9.93095C69.3291 10.7698 75.1253 11.2947 78.5189 10.8668C79.049 10.7983 79.5272 10.7926 79.9939 10.8154C80.8063 11.5344 81.538 12.3675 82.189 13.3204L85.6979 13.6514C85.4905 14.1078 85.283 17.2919 85.0756 17.7484C84.6205 18.5415 84.7818 19.4887 85.7209 19.7341C85.7209 19.7341 86.9136 20.0879 87.4091 23.329C87.4091 23.329 87.6568 24.5843 86.6716 25.8397C86.6197 27.192 88.2676 33.3033 88.2503 34.6899C88.2445 35.3347 88.2964 36.3047 88.5556 37.0066L86.0724 39.0893C86.0839 39.4488 86.1012 39.8026 86.1127 40.1621C85.9226 43.289 87.0691 46.1934 85.6518 49.2348C84.7126 49.8339 83.4278 51.7341 81.9586 51.7341C78.8012 51.7797 72.8034 53.0237 66.0796 54.6842C64.8236 54.6956 63.5675 54.7127 62.3115 54.7241C58.7335 55.8368 55.2362 56.4359 52.2344 53.7369C48.9157 53.5886 45.597 53.4402 42.2784 53.2976C39.386 54.4103 36.6493 55.5629 32.9791 54.2562C31.8844 53.8682 29.96 54.513 28.5369 54.8953C27.2233 55.2548 25.1548 56.1506 23.9276 56.6699C23.7432 56.881 23.5589 57.0864 23.3745 57.2976C22.8617 57.309 22.3489 57.3261 21.8246 57.3432C21.139 57.366 18.6673 56.4417 17.4055 56.3561C14.9222 56.1963 13.1707 55.4716 12.0011 53.9024C9.80591 50.9524 10.4685 45.8682 10.5376 40.3561C10.5664 37.9367 10.5952 35.6542 10.4454 33.6628C10.1286 29.503 10.1113 21.7084 13.5221 16.2362L13.5337 16.2305ZM57.8981 107.494C55.5416 108.059 53.1332 109.765 50.7191 110.33C50.408 110.376 50.0969 110.416 49.7857 110.456C44.8653 110.479 39.6107 110.496 34.5981 110.502C28.7789 109.885 24.2964 110.85 20.8279 110.952C20.1365 110.969 19.5085 111.015 18.9438 111.078C16.4663 111.363 14.6975 110.815 13.5279 109.417C13.1073 108.915 12.7501 108.208 12.4505 107.363C12.3064 105.166 12.6406 102.844 12.9921 100.664C11.4422 99.5059 12.1278 97.8796 13.0843 95.7626C13.2513 95.3632 11.6554 89.5772 11.8282 89.172L10.8891 88.1564C10.8833 88.0479 10.8776 87.9395 10.8718 87.8311C10.5607 84.1278 8.68815 77.4745 12.1105 72.5957C12.7386 71.7056 14.1041 71.0779 15.4062 70.5244C16.282 70.9581 17.1059 71.5743 17.7915 71.911L26.3302 70.0508C26.6586 68.7498 27.7821 68.0308 28.6233 67.5344C30.2596 67.2491 31.9363 66.9809 33.6244 66.7698C34.1718 66.7698 34.7422 66.7641 35.3241 66.7583C36.0385 67.0379 36.753 67.3061 37.4732 67.426C39.749 67.8311 42.0249 68.2362 44.3007 68.6471C45.0785 68.9894 45.8563 69.3375 46.6341 69.6799C47.0202 70.085 47.4004 70.4845 47.7865 70.8896C49.1693 70.901 50.5808 70.6956 51.9175 70.9923C52.874 71.2034 53.7267 72.0993 54.6255 72.687C55.7778 72.5729 56.9244 72.4588 58.0767 72.3447C58.7393 72.0137 59.4019 71.3917 60.0702 71.4146C61.8045 71.4716 63.5445 71.8197 65.2845 72.0479C66.1487 71.7912 67.4048 71.7626 68.269 71.5116C68.9489 71.1521 72.2388 68.9723 72.9129 68.6128C74.6644 67.8653 76.4044 67.677 78.1329 68.9495L82.8459 70.707C83.3932 70.9866 83.9406 71.2719 84.4879 71.5515C86.8041 76.1392 85.502 81.8397 85.3349 85.1663C85.2485 86.9409 85.3464 88.9723 85.4501 91.1293C85.4905 91.9281 86.1012 92.7441 86.13 93.5601C85.9399 96.3504 85.9053 100.014 84.4879 102.718C83.5488 103.255 82.3907 103.557 80.9157 103.557C76.4217 103.62 67.8196 105.104 57.9039 107.489L57.8981 107.494ZM83.906 111.312C80.4721 111.991 76.969 112.676 73.4602 113.355C73.0108 113.406 72.5556 113.457 72.1062 113.514C68.3036 113.566 64.3626 113.623 60.4102 113.668L73.731 109.783C80.4029 109.537 82.9035 110.273 86.3374 110.833C85.5308 110.992 84.7242 111.152 83.906 111.312Z" fill="#584F49"/>
</svg>
